<?xml version="1.0" encoding="utf-8"?>
<!-- Generator: Adobe Illustrator 24.1.2, SVG Export Plug-In . SVG Version: 6.00 Build 0)  -->
<svg version="1.1" id="Camada_1" xmlns="http://www.w3.org/2000/svg" xmlns:xlink="http://www.w3.org/1999/xlink" x="0px" y="0px"
	 viewBox="0 0 16 16" style="enable-background:new 0 0 16 16;" xml:space="preserve">
<style type="text/css">
	.st0{fill:#ec2300;}
</style>
<path class="st0" d="M11,1.5v1h3.5C14.8,2.5,15,2.7,15,3s-0.2,0.5-0.5,0.5H14l-0.9,10.7c-0.1,1-1,1.8-2,1.8H4.9c-1,0-1.9-0.8-2-1.8
	L2,3.5H1.5C1.2,3.5,1,3.3,1,3s0.2-0.5,0.5-0.5H5v-1C5,0.7,5.7,0,6.5,0h3C10.3,0,11,0.7,11,1.5 M6,1.5v1h4v-1C10,1.2,9.8,1,9.5,1h-3
	C6.2,1,6,1.2,6,1.5 M4.5,5L5,13.5C5,13.8,5.2,14,5.5,14S6,13.8,6,13.5c0,0,0,0,0,0L5.5,5c0-0.3-0.2-0.5-0.5-0.5
	C4.7,4.5,4.5,4.7,4.5,5C4.5,5,4.5,5,4.5,5 M11,4.5c-0.3,0-0.5,0.2-0.5,0.5L10,13.5c0,0.3,0.2,0.5,0.5,0.5c0.3,0,0.5-0.2,0.5-0.5
	L11.5,5C11.5,4.8,11.3,4.5,11,4.5 M8,4.5C7.7,4.5,7.5,4.7,7.5,5v8.5C7.5,13.8,7.7,14,8,14c0.3,0,0.5-0.2,0.5-0.5V5
	C8.5,4.7,8.3,4.5,8,4.5"/>
</svg>
